<svg width="267" height="64" viewBox="0 0 267 64" fill="none" xmlns="http://www.w3.org/2000/svg">
<!-- Icon -->
<g transform="translate(0, 0)">
<path d="M23.6396 41.0144L29.758 34.8959C30.238 34.4159 29.8992 33.5891 29.2176 33.5891H22.2118C20.9574 33.5891 20.2718 32.125 21.0784 31.1611L46.1654 1.25838C46.5848 0.762289 46.2299 0 45.5806 0H33.3597C31.69 0 30.0928 0.66549 28.9151 1.84724L0.722484 30.2092C-0.241469 31.1812 -0.241469 32.7502 0.726517 33.7182L6.97003 39.9617C7.99044 40.9821 9.36982 41.5548 10.8097 41.5548H22.3287C22.8168 41.5548 23.2887 41.3612 23.6355 41.0144H23.6396Z" fill="#56C7F3"/>
<path d="M57.0988 30.2738L50.8553 24.0302C49.8349 23.0098 48.4555 22.4371 47.0156 22.4371H35.4966C35.0086 22.4371 34.5367 22.6307 34.1898 22.9776L28.0713 29.096C27.5914 29.576 27.9302 30.4028 28.6118 30.4028H35.6176C36.8719 30.4028 37.5576 31.8669 36.7509 32.8309L11.6599 62.7416C11.2405 63.2377 11.5954 64 12.2448 64H24.4656C26.1354 64 27.7325 63.3345 28.9102 62.1528L57.1028 33.7908C58.0668 32.8188 58.0668 31.2498 57.0988 30.2818V30.2738Z" fill="#56C7F3"/>
</g>
<!-- Logo Text (scaled and positioned) -->
<g transform="translate(71.49, 14.07) scale(0.89)">
<path d="M102.63 1.98898H100.005V8.77698H94.5273V11.1526H100.005V24.7286C100.005 25.8579 100.029 26.8622 100.073 27.7374C100.117 28.6126 100.343 29.4798 100.751 30.3389C101.247 31.3956 101.993 32.174 102.981 32.6822C103.969 33.1864 105.095 33.4727 106.365 33.5413C107.631 33.6099 108.914 33.501 110.213 33.2146V30.8632C108.386 31.1496 106.885 31.1818 105.712 30.964C104.534 30.7462 103.675 30.117 103.13 29.0765C102.844 28.5199 102.691 27.9028 102.666 27.2332C102.642 26.5637 102.634 25.7127 102.634 24.6883V11.1566H110.213V8.78102H102.634V1.99302L102.63 1.98898Z" fill="white"/>
<path d="M122.11 8.55917C121.219 8.6116 120.34 8.79309 119.465 9.10366C118.589 9.41422 117.827 9.86998 117.178 10.4709C116.738 10.8501 116.315 11.3341 115.899 11.931C115.742 12.1609 115.597 12.3948 115.46 12.6368V8.77293H113.084V33.2105H115.71V21.1067C115.71 20.1105 115.762 19.09 115.867 18.0414C115.972 16.9927 116.214 15.9885 116.589 15.0326C116.964 14.0767 117.569 13.2337 118.4 12.5077C119.352 11.7092 120.368 11.2413 121.453 11.1042C122.538 10.967 123.566 11.0154 124.53 11.2413V8.77293C123.808 8.5753 122.998 8.50673 122.11 8.55917Z" fill="white"/>
<path d="M144.307 13.0966C143.702 11.5115 142.637 10.2854 141.104 9.41018C139.572 8.53496 137.684 8.09937 135.438 8.09937C132.796 8.09937 130.634 8.69629 128.944 9.88611C127.254 11.0759 126.129 12.782 125.572 15.0003L128.242 15.7465C128.726 13.996 129.565 12.7013 130.763 11.8664C131.961 11.0275 133.49 10.6121 135.345 10.6121C137.983 10.6121 139.83 11.2574 140.878 12.5481C141.867 13.7621 142.355 15.5851 142.359 18.0011C141.645 18.0938 140.814 18.1947 139.858 18.3076C138.446 18.4729 136.966 18.6665 135.413 18.8843C133.861 19.1021 132.413 19.3643 131.07 19.6668C129.892 19.9532 128.819 20.3847 127.847 20.9574C126.875 21.5302 126.097 22.2844 125.516 23.2201C124.935 24.1558 124.645 25.3174 124.645 26.7049C124.645 27.9874 124.955 29.1732 125.572 30.2703C126.189 31.3633 127.121 32.2425 128.367 32.904C129.614 33.5695 131.178 33.9002 133.062 33.9002C135.583 33.9002 137.761 33.3033 139.6 32.1135C140.854 31.3028 141.842 30.2501 142.589 28.9716V33.2226H144.964V17.997C144.964 17.1218 144.92 16.2506 144.827 15.3835C144.738 14.5163 144.565 13.7581 144.307 13.1087V13.0966ZM142.339 21.627C142.322 22.5788 142.242 23.4581 142.088 24.2728C141.879 25.7369 141.383 27.0074 140.608 28.0842C139.83 29.1611 138.817 30 137.563 30.597C136.313 31.1939 134.857 31.4924 133.195 31.4924C131.731 31.4924 130.569 31.2504 129.71 30.7664C128.851 30.2824 128.234 29.6734 127.867 28.9353C127.496 28.1972 127.315 27.4551 127.315 26.717C127.315 25.7207 127.553 24.898 128.028 24.2526C128.504 23.6033 129.101 23.0951 129.815 22.724C130.533 22.353 131.243 22.0706 131.953 21.877C133.098 21.5745 134.381 21.3285 135.801 21.1309C137.22 20.9332 138.612 20.7679 139.975 20.6348C140.85 20.5461 141.641 20.4654 142.355 20.3847C142.355 20.7356 142.347 21.151 142.339 21.631V21.627Z" fill="white"/>
<path d="M166.525 12.4916C165.828 11.4107 164.973 10.5032 163.944 9.77319C162.375 8.65598 160.451 8.09938 158.172 8.09938C155.894 8.09938 154.067 8.66404 152.506 9.79739C150.945 10.9267 149.747 12.4674 148.92 14.4115C148.089 16.3555 147.674 18.5375 147.674 20.9494C147.674 23.3613 148.093 25.5917 148.928 27.5438C149.767 29.4959 150.981 31.0447 152.57 32.1821C154.163 33.3195 156.111 33.8922 158.418 33.8922C160.725 33.8922 162.484 33.3194 164.009 32.174C165.114 31.3431 166.021 30.3026 166.747 29.0522V33.2146H169.123V0.629761H166.521V12.4876L166.525 12.4916ZM165.86 26.3016C165.263 27.8786 164.359 29.1208 163.145 30.0364C161.931 30.9479 160.411 31.4036 158.588 31.4036C156.765 31.4036 155.297 30.9439 154.095 30.0243C152.897 29.1047 151.989 27.8544 151.38 26.2814C150.771 24.7044 150.465 22.9297 150.465 20.9534C150.465 18.9771 150.759 17.2307 151.348 15.6698C151.937 14.109 152.832 12.8707 154.042 11.9592C155.248 11.0477 156.781 10.5919 158.636 10.5919C160.492 10.5919 161.931 11.0316 163.137 11.9149C164.343 12.7982 165.251 14.0243 165.852 15.5932C166.457 17.1622 166.755 18.9489 166.755 20.9575C166.755 22.966 166.457 24.7326 165.86 26.3096V26.3016Z" fill="white"/>
<path d="M188.62 30.0323C187.208 30.9156 185.562 31.3552 183.675 31.3552C180.944 31.3552 178.831 30.4518 177.326 28.6408C175.943 26.9711 175.205 24.6681 175.096 21.7399H194.851C194.895 18.8722 194.476 16.424 193.597 14.3872C192.713 12.3504 191.431 10.7936 189.749 9.71671C188.067 8.63982 186.042 8.09937 183.675 8.09937C181.307 8.09937 179.319 8.61966 177.621 9.66024C175.923 10.7008 174.612 12.1891 173.684 14.1291C172.757 16.0691 172.293 18.3721 172.293 21.0421C172.293 23.7122 172.761 25.9426 173.697 27.8624C174.632 29.7863 175.951 31.2705 177.657 32.3192C179.363 33.3678 181.384 33.8922 183.719 33.8922C186.055 33.8922 188.22 33.3194 190.076 32.174C191.931 31.0285 193.347 29.3991 194.331 27.2857L191.979 26.2451C191.149 27.8906 190.031 29.1531 188.62 30.0363V30.0323ZM177.331 13.2902C178.831 11.4712 180.96 10.5637 183.723 10.5637C186.486 10.5637 188.446 11.4389 189.878 13.1894C191.096 14.6776 191.818 16.7467 192.056 19.3885H175.153C175.362 16.8395 176.084 14.8027 177.331 13.2902Z" fill="white"/>
<path d="M88.2637 29.1312L90.1517 27.2432C91.0415 26.3534 92.4846 26.3534 93.3744 27.2432L95.2624 29.1312C96.1522 30.021 96.1522 31.4641 95.2624 32.3539L93.3744 34.2419C92.4846 35.1317 91.0415 35.1317 90.1517 34.2419L88.2637 32.3539C87.3739 31.4641 87.3739 30.021 88.2637 29.1312Z" fill="white"/>
<path d="M23.0945 17.146C22.1749 16.4966 21.215 15.9925 20.2228 15.6295C19.2266 15.2665 18.3312 14.9801 17.5286 14.7704L11.6925 13.1409C10.9544 12.9433 10.2244 12.7013 9.51046 12.4069C8.79254 12.1125 8.19562 11.7132 7.71163 11.209C7.22763 10.7048 6.98563 10.0515 6.98563 9.25287C6.98563 8.40588 7.26796 7.66779 7.83262 7.03457C8.39728 6.40134 9.14343 5.91332 10.0711 5.57452C10.9987 5.23573 12.0071 5.0744 13.092 5.0865C14.2092 5.11473 15.2619 5.34463 16.2501 5.76409C17.2382 6.18758 18.0731 6.80064 18.7628 7.60729C19.4485 8.41395 19.9123 9.39 20.1543 10.5395L26.0146 9.5231C25.5306 7.51856 24.7038 5.80442 23.5261 4.38874C22.3484 2.96903 20.8843 1.88811 19.1379 1.14195C17.3875 0.395798 15.395 0.0126376 13.1646 0.000537771C10.9624 -0.0155953 8.9579 0.331265 7.15906 1.04112C5.35619 1.75098 3.92438 2.81576 2.8596 4.24354C1.79481 5.66729 1.26242 7.42983 1.26242 9.52713C1.26242 10.9589 1.50038 12.1649 1.97631 13.1369C2.45223 14.1089 3.06126 14.9075 3.80741 15.5367C4.55357 16.1619 5.34409 16.6539 6.18301 17.0089C7.02193 17.3638 7.80035 17.6461 8.52634 17.8599L16.9438 20.3484C17.5488 20.5299 18.0771 20.7437 18.541 20.9937C19.0008 21.2438 19.3799 21.5181 19.6703 21.8206C19.9607 22.123 20.1865 22.4659 20.3398 22.849C20.489 23.2322 20.5657 23.6517 20.5657 24.1034C20.5657 25.1157 20.247 25.9668 19.6057 26.6605C18.9645 27.3542 18.1296 27.8826 17.1051 28.2456C16.0807 28.6086 14.9836 28.79 13.8261 28.79C11.8659 28.79 10.1356 28.2617 8.63524 27.205C7.13486 26.1483 6.14268 24.6559 5.65868 22.724L0 23.5831C0.330729 25.7086 1.11319 27.5478 2.34334 29.0925C3.57349 30.6373 5.14243 31.8271 7.05017 32.658C8.95791 33.4848 11.1036 33.9002 13.4873 33.9002C15.1611 33.9002 16.7663 33.6905 18.2949 33.267C19.8276 32.8435 21.1868 32.2103 22.3806 31.3673C23.5705 30.5244 24.5183 29.4636 25.2201 28.1891C25.9219 26.9146 26.2728 25.4303 26.2728 23.7444C26.2728 22.0585 25.9743 20.7719 25.3774 19.7152C24.7804 18.6585 24.0222 17.8074 23.1026 17.1581L23.0945 17.146Z" fill="white"/>
<path d="M50.6303 8.77697H43.8181L34.8804 20.542V0.629761H29.3588L29.3145 33.2146H34.8804V21.4455L44.2255 33.2146H51.445L41.1481 20.9938L50.6303 8.77697Z" fill="white"/>
<path d="M71.954 12.6449C71.1554 11.0316 69.9293 9.86998 68.2757 9.16012C66.622 8.45026 64.7103 8.09534 62.5404 8.09534C59.6606 8.09534 57.3697 8.72049 55.6717 9.97484C53.9737 11.2292 52.8242 12.8869 52.2192 14.9519L57.1963 16.5128C57.6036 15.2625 58.3216 14.3792 59.346 13.867C60.3705 13.3547 61.4353 13.0966 62.5363 13.0966C64.3594 13.0966 65.6581 13.4959 66.4284 14.2945C67.0697 14.96 67.4327 15.936 67.5295 17.2146C66.5454 17.3598 65.5855 17.5009 64.6538 17.63C63.1091 17.8478 61.6732 18.0858 60.3543 18.3439C59.0355 18.602 57.886 18.8884 56.9019 19.203C55.6031 19.6386 54.5505 20.2032 53.7357 20.8889C52.921 21.5745 52.316 22.3893 51.9248 23.333C51.5336 24.2768 51.3359 25.3336 51.3359 26.5113C51.3359 27.8544 51.6505 29.0845 52.2757 30.2017C52.9008 31.3189 53.8245 32.2103 55.0465 32.8838C56.2686 33.5534 57.7609 33.8922 59.5275 33.8922C61.7297 33.8922 63.5648 33.4808 65.037 32.658C66.1703 32.0248 67.1907 31.1092 68.1023 29.9194V33.2105H72.8777V18.2108C72.8777 17.1541 72.8333 16.178 72.7405 15.2786C72.6518 14.3832 72.3856 13.504 71.95 12.6449H71.954ZM67.4166 23.1112C67.3803 24.0106 67.2149 24.8052 66.9286 25.4989C66.7471 26.0555 66.3962 26.6524 65.8759 27.2857C65.3556 27.9189 64.6578 28.4553 63.7826 28.8909C62.9074 29.3265 61.8507 29.5483 60.6165 29.5483C59.7574 29.5483 59.0355 29.4112 58.4547 29.141C57.8739 28.8707 57.4342 28.5037 57.1318 28.0439C56.8293 27.5841 56.68 27.0517 56.68 26.4467C56.68 25.9184 56.797 25.4586 57.0309 25.0674C57.2648 24.6761 57.5996 24.3293 58.0392 24.0268C58.4748 23.7243 59.0113 23.4621 59.6445 23.2363C60.2938 23.0265 61.04 22.8329 61.8829 22.6595C62.7259 22.4861 63.7383 22.3005 64.916 22.1069C65.6662 21.9819 66.5212 21.8448 67.461 21.6955C67.4529 22.111 67.4368 22.5788 67.4126 23.1153L67.4166 23.1112Z" fill="white"/>
<path d="M82.0565 8.77698H76.6035V33.2146H82.0565V8.77698Z" fill="white"/>
<path d="M82.0565 0.065094H76.6035V5.06636H82.0565V0.065094Z" fill="white"/>
</g>
</svg>
