<svg width="64" height="64" viewBox="0 0 57.8253 64" fill="none" xmlns="http://www.w3.org/2000/svg">
<path d="M23.6396 41.0144L29.758 34.8959C30.238 34.4159 29.8992 33.5891 29.2176 33.5891H22.2118C20.9574 33.5891 20.2718 32.125 21.0784 31.1611L46.1654 1.25838C46.5848 0.762289 46.2299 0 45.5806 0H33.3597C31.69 0 30.0928 0.66549 28.9151 1.84724L0.722484 30.2092C-0.241469 31.1812 -0.241469 32.7502 0.726517 33.7182L6.97003 39.9617C7.99044 40.9821 9.36982 41.5548 10.8097 41.5548H22.3287C22.8168 41.5548 23.2887 41.3612 23.6355 41.0144H23.6396Z" fill="#56C7F3"/>
<path d="M57.0988 30.2738L50.8553 24.0302C49.8349 23.0098 48.4555 22.4371 47.0156 22.4371H35.4966C35.0086 22.4371 34.5367 22.6307 34.1898 22.9776L28.0713 29.096C27.5914 29.576 27.9302 30.4028 28.6118 30.4028H35.6176C36.8719 30.4028 37.5576 31.8669 36.7509 32.8309L11.6599 62.7416C11.2405 63.2377 11.5954 64 12.2448 64H24.4656C26.1354 64 27.7325 63.3345 28.9102 62.1528L57.1028 33.7908C58.0668 32.8188 58.0668 31.2498 57.0988 30.2818V30.2738Z" fill="#56C7F3"/>
</svg>
