<svg width="64" height="71" viewBox="0 0 112.507 124.505" fill="none" xmlns="http://www.w3.org/2000/svg">
<path d="M45.9926 79.801L57.8911 67.9024C58.8271 66.9665 58.1664 65.363 56.8382 65.363H43.2055C40.7624 65.363 39.4342 62.514 41.0033 60.6421L89.8225 2.44303C90.6346 1.4727 89.9464 0 88.6802 0H64.9037C61.6555 0 58.5449 1.29377 56.2602 3.59916L1.40561 58.7772C-0.473117 60.6696 -0.466235 63.7251 1.41249 65.6108L13.5588 77.7571C15.5408 79.739 18.2315 80.8539 21.0324 80.8539H43.4463C44.396 80.8539 45.3113 80.4754 45.9857 79.801H45.9926Z" fill="url(#paint0_linear)"/>
<path d="M111.094 58.9009L98.9481 46.7546C96.9662 44.7727 94.2754 43.6578 91.4745 43.6578H69.0606C68.1109 43.6578 67.1957 44.0363 66.5212 44.7107L54.6227 56.6093C53.6867 57.5452 54.3474 59.1487 55.6756 59.1487H69.3084C71.7514 59.1487 73.0796 61.9977 71.5105 63.8696L22.6913 122.062C21.8792 123.032 22.5674 124.505 23.8336 124.505H47.6101C50.8583 124.505 53.9689 123.211 56.2536 120.906L111.101 65.7208C112.98 63.8283 112.973 60.7728 111.094 58.8872V58.9009Z" fill="url(#paint1_linear)"/>
<defs>
<linearGradient id="paint0_linear" x1="34.2798" y1="2.85593" x2="73.7261" y2="109.75" gradientUnits="userSpaceOnUse">
<stop stop-color="#56C7F3"/>
<stop offset="1" stop-color="#00FFCC"/>
</linearGradient>
<linearGradient id="paint1_linear" x1="34.3834" y1="2.82144" x2="73.8297" y2="109.716" gradientUnits="userSpaceOnUse">
<stop stop-color="#56C7F3"/>
<stop offset="1" stop-color="#17F9B4"/>
</linearGradient>
</defs>
</svg>
