<svg width="32" height="32" viewBox="0 0 32 32" fill="none" xmlns="http://www.w3.org/2000/svg">
  <circle cx="16" cy="16" r="14" fill="#F6851B"/>
  <path d="M26.2 8.1l-7.5 5.6 1.4-3.3 6.1-2.3z" fill="#E4761B"/>
  <path d="M5.8 8.1l7.4 5.7-1.3-3.4-6.1-2.3z" fill="#E4761B"/>
  <path d="M23 20.3l-2 3 4.3 1.2 1.2-4.2h-3.5z" fill="#E4761B"/>
  <path d="M5.5 20.3l1.2 4.2 4.3-1.2-2-3H5.5z" fill="#E4761B"/>
  <path d="M10.7 14.1l-1.2 1.8 4.3.2-.2-4.6-2.9 2.6z" fill="#E4761B"/>
  <path d="M21.3 14.1l-3-2.7-.1 4.7 4.3-.2-1.2-1.8z" fill="#E4761B"/>
  <path d="M11 23.3l2.6-1.3-2.2-1.7-.4 3z" fill="#E4761B"/>
  <path d="M18.4 22l2.6 1.3-.4-3-2.2 1.7z" fill="#E4761B"/>
  <path d="M21 23.3l-2.6-1.3.2 1.7-.1.7 2.5-1.1z" fill="#D7C1B3"/>
  <path d="M11 23.3l2.5 1.1-.1-.7.2-1.7-2.6 1.3z" fill="#D7C1B3"/>
  <path d="M13.6 18.7l-2.1-.6 1.5-.7.6 1.3z" fill="#233447"/>
  <path d="M18.4 18.7l.6-1.3 1.5.7-2.1.6z" fill="#233447"/>
  <path d="M11 23.3l.4-3-2.4.1 2 2.9z" fill="#CD6116"/>
  <path d="M20.6 20.3l.4 3 2-2.9-2.4-.1z" fill="#CD6116"/>
  <path d="M22.1 15.9l-4.3.2.4 2.6.6-1.3 1.5.7 1.8-2.2z" fill="#CD6116"/>
  <path d="M11.5 18.1l1.5-.7.6 1.3.4-2.6-4.3-.2 1.8 2.2z" fill="#CD6116"/>
  <path d="M9.7 15.9l1.9 3.7-.1-1.8-1.8-1.9z" fill="#E4751F"/>
  <path d="M20.3 17.8l-.1 1.8 1.9-3.7-1.8 1.9z" fill="#E4751F"/>
  <path d="M14 16.1l-.4 2.6 1 5.1.3-3.3-.9-4.4z" fill="#E4751F"/>
  <path d="M18 16.1l-.9 4.3.2 3.4 1-5.1-.3-2.6z" fill="#E4751F"/>
  <path d="M18.4 18.7l-1 5.1.2.7 2.6-2-.1-1.8-1.7-2z" fill="#F6851B"/>
  <path d="M11.5 18.1l-.1 1.8 2.6 2 .2-.7-.9-5.1-1.8 2z" fill="#F6851B"/>
  <path d="M18.5 26.5v-2.1l-.2-.2h-4.6l-.2.2v2.1l-3.2-1.5.6.5 3.9 2.7h4.6l3.9-2.7.6-.5-3.4 1.5z" fill="#C0AD9E"/>
  <path d="M18.4 22l-.2-.7h-4.4l-.2.7-.2 1.7.2-.2h4.6l.2.2v-1.7z" fill="#161616"/>
  <path d="M26.6 8.7l.6-3.2-.9-2.7-7.9 5.9 3 2.6 4.3 1.3.9-1.1-.4-.3.6-.6-.5-.4.6-.5-.4-.3.7-.7z" fill="#763D16"/>
  <path d="M4.8 5.5l.6 3.2-.4.3.6.5-.5.4.6.6-.4.3 1 1.1 4.3-1.3 3-2.6L5.7 2.8l-.9 2.7z" fill="#763D16"/>
  <path d="M25.7 12.6l-4.3-1.3 1.3 2-1.9 3.7 2.5-.1h3.6l-1.2-4.3z" fill="#F6851B"/>
  <path d="M10.6 11.3l-4.3 1.3-1.2 4.2h3.6l2.5.1-1.9-3.7 1.3-1.9z" fill="#F6851B"/>
  <path d="M17.8 16.1l.3-5.1-1.3-3.5h-1.6l-1.3 3.5.3 5.1.1 2.3v3.4h2.4v-3.4l.1-2.3z" fill="#F6851B"/>
</svg>
