<svg width="32" height="32" viewBox="0 0 32 32" fill="none" xmlns="http://www.w3.org/2000/svg">
  <circle cx="16" cy="16" r="14" fill="#3B99FC"/>
  <path d="M10.7 13.5c2.9-2.8 7.7-2.8 10.6 0l.4.3c.1.1.1.4 0 .5l-1.2 1.2c-.1.1-.2.1-.3 0l-.5-.5c-2-2-5.3-2-7.4 0l-.5.5c-.1.1-.2.1-.3 0l-1.2-1.2c-.1-.1-.1-.4 0-.5l.4-.3zm13.1 2.4l1.1 1.1c.1.1.1.4 0 .5l-5 4.9c-.2.2-.4.2-.6 0l-3.5-3.5c0 0-.1-.1-.1 0l-3.5 3.5c-.2.2-.4.2-.6 0l-5-4.9c-.1-.1-.1-.4 0-.5l1.1-1.1c.2-.2.4-.2.6 0l3.5 3.5c0 0 .1.1.1 0l3.5-3.5c.2-.2.4-.2.6 0l3.5 3.5c0 0 .1.1.1 0l3.5-3.5c.2-.2.5-.2.7 0z" fill="white"/>
</svg>
