<svg width="400" height="300" viewBox="0 0 400 300" fill="none" xmlns="http://www.w3.org/2000/svg">
  <defs>
    <linearGradient id="heroGrad" x1="0%" y1="0%" x2="100%" y2="100%">
      <stop offset="0%" stop-color="#6366F1" stop-opacity="0.2"/>
      <stop offset="100%" stop-color="#EC4899" stop-opacity="0.2"/>
    </linearGradient>
  </defs>
  <rect width="400" height="300" fill="url(#heroGrad)"/>
  <!-- Abstract trading chart -->
  <path d="M50 200 L100 180 L150 190 L200 150 L250 160 L300 120 L350 100" stroke="#6366F1" stroke-width="3" fill="none"/>
  <path d="M50 200 L100 180 L150 190 L200 150 L250 160 L300 120 L350 100 L350 250 L50 250 Z" fill="#6366F1" fill-opacity="0.1"/>
  <!-- Candlesticks -->
  <rect x="80" y="170" width="8" height="30" fill="#10B981"/>
  <rect x="120" y="160" width="8" height="40" fill="#EF4444"/>
  <rect x="160" y="140" width="8" height="35" fill="#10B981"/>
  <rect x="200" y="130" width="8" height="45" fill="#10B981"/>
  <rect x="240" y="120" width="8" height="30" fill="#EF4444"/>
  <rect x="280" y="100" width="8" height="50" fill="#10B981"/>
  <!-- SKAI logo watermark -->
  <path d="M180 80 L200 75 L220 80 L200 130 L180 80Z" fill="#6366F1" fill-opacity="0.3"/>
</svg>
