<svg width="300" height="200" viewBox="0 0 300 200" fill="none" xmlns="http://www.w3.org/2000/svg">
  <defs>
    <linearGradient id="tradingGrad" x1="0%" y1="0%" x2="100%" y2="0%">
      <stop offset="0%" stop-color="#6366F1"/>
      <stop offset="100%" stop-color="#EC4899"/>
    </linearGradient>
  </defs>
  <!-- Chart background -->
  <rect x="30" y="30" width="240" height="140" rx="8" fill="#1E293B" fill-opacity="0.5"/>
  <!-- Grid lines -->
  <line x1="30" y1="60" x2="270" y2="60" stroke="#6B7280" stroke-opacity="0.2"/>
  <line x1="30" y1="100" x2="270" y2="100" stroke="#6B7280" stroke-opacity="0.2"/>
  <line x1="30" y1="140" x2="270" y2="140" stroke="#6B7280" stroke-opacity="0.2"/>
  <!-- Trading line -->
  <path d="M50 120 L80 100 L110 110 L140 70 L170 80 L200 50 L230 60 L260 40" stroke="url(#tradingGrad)" stroke-width="3" fill="none"/>
  <!-- Area under line -->
  <path d="M50 120 L80 100 L110 110 L140 70 L170 80 L200 50 L230 60 L260 40 L260 170 L50 170 Z" fill="url(#tradingGrad)" fill-opacity="0.1"/>
  <!-- Data points -->
  <circle cx="140" cy="70" r="5" fill="#6366F1"/>
  <circle cx="200" cy="50" r="5" fill="#EC4899"/>
  <circle cx="260" cy="40" r="5" fill="#6366F1"/>
</svg>
