<svg width="24" height="24" viewBox="0 0 24 24" fill="none" xmlns="http://www.w3.org/2000/svg">
  <path d="M3 3L21 21" stroke="currentColor" stroke-width="1.5" stroke-linecap="round"/>
  <path d="M10.5 10.677C10.1843 10.9967 10 11.4348 10 12C10 13.1046 10.8954 14 12 14C12.5652 14 13.0033 13.8157 13.323 13.5" stroke="currentColor" stroke-width="1.5" stroke-linecap="round"/>
  <path d="M7.362 7.561C5.68 8.74 4.279 10.42 3 12C4.889 15.161 8.105 18 12 18C13.55 18 15.01 17.533 16.31 16.736" stroke="currentColor" stroke-width="1.5" stroke-linecap="round" stroke-linejoin="round"/>
  <path d="M12 6C16.008 6 19.159 8.688 21 12C20.461 12.963 19.823 13.855 19.094 14.629" stroke="currentColor" stroke-width="1.5" stroke-linecap="round" stroke-linejoin="round"/>
</svg>
