<svg width="32" height="32" viewBox="0 0 32 32" fill="none" xmlns="http://www.w3.org/2000/svg">
  <circle cx="16" cy="16" r="14" fill="#F7931A"/>
  <path d="M21.8 14.3c.3-2-1.2-3.1-3.3-3.8l.7-2.7-1.6-.4-.7 2.6c-.4-.1-.9-.2-1.3-.3l.7-2.6-1.6-.4-.7 2.7c-.3-.1-.7-.2-1-.2v-.1l-2.3-.6-.4 1.7s1.2.3 1.2.3c.7.2.8.6.8 1l-.8 3.1c0 0 .1 0 .2.1h-.2l-1.1 4.5c-.1.2-.3.5-.8.4 0 0-1.2-.3-1.2-.3l-.8 1.9 2.1.5c.4.1.8.2 1.2.3l-.7 2.8 1.6.4.7-2.7c.4.1.9.2 1.3.3l-.7 2.7 1.6.4.7-2.8c2.9.5 5.1.3 6-2.3.7-2.1 0-3.3-1.5-4.1 1.1-.2 1.9-1 2.1-2.5zm-3.8 5.3c-.5 2.1-4.1 1-5.3.7l.9-3.8c1.2.3 5 .9 4.4 3.1zm.5-5.4c-.5 1.9-3.5.9-4.5.7l.8-3.4c1 .2 4.2.7 3.7 2.7z" fill="white"/>
</svg>
