<svg width="24" height="24" viewBox="0 0 24 24" fill="none" xmlns="http://www.w3.org/2000/svg">
  <circle cx="12" cy="12" r="11" stroke="currentColor" stroke-width="1.5" fill="none"/>
  <path d="M6 8C6 8 8.5 5 12 5C15.5 5 18 8 18 8V10C18 10 15.5 7 12 7C8.5 7 6 10 6 10V8Z" fill="currentColor"/>
  <path d="M6 12C6 12 8.5 9 12 9C15.5 9 18 12 18 12V14C18 14 15.5 11 12 11C8.5 11 6 14 6 14V12Z" fill="currentColor"/>
  <path d="M6 16C6 16 8.5 13 12 13C15.5 13 18 16 18 16V18C18 18 15.5 15 12 15C8.5 15 6 18 6 18V16Z" fill="currentColor"/>
</svg>
