<svg width="32" height="32" viewBox="0 0 32 32" fill="none" xmlns="http://www.w3.org/2000/svg">
  <circle cx="16" cy="16" r="14" fill="#2775CA"/>
  <path d="M20.5 18.5c0-2-1.2-2.7-3.6-3-.24-.03-.48-.07-.73-.11-1.52-.25-1.87-.62-1.87-1.39 0-.77.65-1.3 1.7-1.3 1.05 0 1.7.39 1.88 1.17.02.1.1.18.21.18h1.03c.14 0 .24-.12.22-.26-.18-1.23-1.15-2.1-2.34-2.3V10c0-.14-.1-.24-.24-.24h-.96c-.14 0-.24.1-.24.24v1.47c-1.54.24-2.57 1.26-2.57 2.58 0 1.85 1.13 2.64 3.54 3 .23.03.44.07.64.1 1.63.27 2.02.64 2.02 1.45 0 .87-.71 1.45-1.83 1.45-1.41 0-1.94-.59-2.1-1.37-.02-.1-.1-.17-.21-.17h-1.04c-.14 0-.24.12-.22.26.2 1.35 1.06 2.27 2.57 2.55V22c0 .14.1.24.24.24h.96c.14 0 .24-.1.24-.24v-1.45c1.59-.23 2.67-1.31 2.67-2.73v-.02z" fill="white"/>
</svg>
