<svg width="32" height="32" viewBox="0 0 32 32" fill="none" xmlns="http://www.w3.org/2000/svg">
  <circle cx="16" cy="16" r="14" fill="#26A17B"/>
  <path d="M17.8 17.7v-.1c0-.1-.1-.1-.1-.1-1.3-.1-2.6-.3-3.4-.4-.1 0-.1 0-.1.1v.1c0 .8.1 1.5.1 1.5s-.1.7-.1 1.5v.1c0 .1.1.1.1.1.8.1 2.1.3 3.4.4.1 0 .1 0 .1-.1v-.1s.1-.7.1-1.5c0-.8-.1-1.5-.1-1.5zm-1.6-2.6c2.6 0 4.8-.3 4.8-1.1v-1.7c0-.8-2.2-1.1-4.8-1.1-2.6 0-4.8.3-4.8 1.1V14c0 .8 2.2 1.1 4.8 1.1zm0 1.2c-2.6 0-4.8-.3-4.8-1.1v1.7c0 .8 2.2 1.1 4.8 1.1 2.6 0 4.8-.3 4.8-1.1v-1.7c0 .8-2.2 1.1-4.8 1.1zm0 2.6c-2.6 0-4.8-.3-4.8-1.1v1.7c0 .8 2.2 1.1 4.8 1.1 2.6 0 4.8-.3 4.8-1.1v-1.7c0 .8-2.2 1.1-4.8 1.1z" fill="white"/>
</svg>
